<?xml version="1.0" encoding="UTF-8" standalone="no"?>
<!-- Generator: Adobe Illustrator 19.0.0, SVG Export Plug-In . SVG Version: 6.00 Build 0)  -->

<svg
   version="1.1"
   id="layer"
   x="0px"
   y="0px"
   width = "1600px"
   height = "1600px"
   viewBox="-153 -46 652 652"
   style="enable-background:new -153 -46 652 652;"
   xml:space="preserve"
   xmlns="http://www.w3.org/2000/svg"
   xmlns:svg="http://www.w3.org/2000/svg"><defs
   id="defs1" />
<style
   type="text/css"
   id="style1">
	.st0{fill:#FFFFFF;}
</style>
<path
   class="st0"
   d="M-24.2,300v-0.1c0-11.3-8-17.4-20.7-17.4H-69v56.9h12.5v-21.1h6.7l14.2,21.1H-21l-15.6-22.6  C-29.7,314.2-24.2,308.9-24.2,300z M-36.9,300.2c0,4.5-3.6,6.8-8.9,6.8h-10.7v-13.3H-46c5.7,0,9.2,1.7,9.2,6.4V300.2z M-103.1,307.2  h23.7v23.5c-5.6,4.7-13.4,8.6-23.4,8.6c-17.1,0-28.9-12-28.9-28.1V311c0-15.7,12.1-28.4,28.8-28.4c9.9,0,15.8,2.7,21.5,7.5l-7.5,9.2  c-4.3-3.5-8.1-5.6-14.3-5.6c-8.8,0-15.9,7.8-15.9,17.2v0.1c0,10.1,6.9,17.4,16.8,17.4c4.4,0,8.3-1,11.3-3.2v-7.5h-12.1L-103.1,307.2  L-103.1,307.2z M84.8,282.4h12.4v31.2c0,17.2-9.6,25.7-25,25.7c-15.2,0-24.6-8.6-24.6-25.3v-31.6h12.5v31.2c0,9.3,4.6,14,12.3,14  c7.7,0,12.3-4.5,12.3-13.6C84.8,314.1,84.8,282.4,84.8,282.4z M130.9,282.4h-24.1v56.9h12.5V320h10.4c10.7,0,21.8-6.4,21.8-19.2  v-0.1C151.5,289.5,143.5,282.4,130.9,282.4L130.9,282.4z M138.9,301.1c0,4.5-2.9,7.8-8.9,7.8h-10.7v-15.2h10.4  c6.4,0,9.2,2.7,9.2,7.3C138.9,301,138.9,301.1,138.9,301.1z M10.6,282.4c-17,0-29.3,12.8-29.3,28.4v0.2c0,15.6,12.1,28.3,29.1,28.3  s29.3-12.8,29.3-28.6v-0.1C39.7,295.1,27.6,282.4,10.6,282.4z M27.1,311.1c0,9.4-6.9,17.1-16.5,17.1c-9.8,0-16.8-7.9-16.8-17.3v-0.1  c0-9.4,6.9-17.2,16.5-17.2c9.8,0,16.8,7.9,16.8,17.3C27.1,310.9,27.1,311.1,27.1,311.1z M5.9,210.9l-24.2,56.9h12.8l5.2-12.8h24  l5.2,12.8h13l-24.2-56.9C17.7,210.9,5.9,210.9,5.9,210.9z M4.1,244l7.5-18.5l7.5,18.5H4.1z M352.4,210.6L328,267.8h12.8L346,255h24  l5.2,12.8h13L364,210.6H352.4L352.4,210.6z M350.4,244l7.5-18.5l7.7,18.5H350.4z M273.4,228.5v-0.1c0-11.3-8-17.4-20.7-17.4h-24.1  v56.9h12.5v-21.1h6.7l14.2,21.1h14.6l-15.6-22.6C268,242.7,273.4,237.4,273.4,228.5z M260.8,228.7c0,4.5-3.6,6.8-8.9,6.8h-10.7  v-13.3h10.4c5.7,0,9.2,1.7,9.2,6.4L260.8,228.7L260.8,228.7z M-60.9,267.8h-12.5v-56.9h12.5v22.5h24.6v-22.5h12.5v56.9h-12.5v-22.9  h-24.6V267.8z M101.4,267.8V233l-18,34.8h-5.6L60,233.2v34.6H47.6v-56.9h14.2L81.1,249l18.3-38.1h14.4v56.9H101.4z M468.3,210.9  v56.9h-10.6l-27.5-36.1v36.1h-12.4v-56.9h11.6L456,246v-35.1H468.3L468.3,210.9z M-131.7,239.5v-0.1c0-15.5,11.7-28.3,28.6-28.3  c10.3,0,16.4,3.4,21.6,8.4l-7.7,8.8c-4.3-3.8-8.5-6.2-14-6.2c-9.3,0-15.9,7.7-15.9,17.1v0.1c0,9.4,6.5,17.2,15.9,17.2  c6.3,0,10.1-2.5,14.4-6.4l7.6,7.7c-5.6,6-11.9,9.7-22.5,9.7C-119.7,267.7-131.7,255.2-131.7,239.5z M189.8,256.7h30.9v11.1h-43.3  v-56.9h43v11.1h-30.5v11.5h26.8v11.1h-26.8L189.8,256.7z M295.5,256.4h28.7v11.4h-41.2v-56.9h12.5V256.4z M394.4,210.9h12.5v56.9  h-12.5V210.9z M160.6,238.8c5.3-2.7,8.5-7.4,8.5-13v-0.1c0-8.8-6.8-14.7-18.7-14.7h-26.2v56.9h24.5c12.9,0,21.4-5.2,21.4-15.6V252  C170,245.4,166.5,241.2,160.6,238.8L160.6,238.8z M136.3,222h12.2c5.2,0,8.1,2.1,8.1,5.8v0.1c0,4.6-3.5,6.5-8.9,6.5h-11.4  C136.3,234.4,136.3,222,136.3,222z M157.5,250.6c0,4.3-3.2,6.2-8.8,6.2h-12.3v-12.4h12c6.4,0,9.2,2.3,9.2,6.2V250.6z"
   id="path1" />
</svg>
