<svg width="155" height="41" viewBox="0 0 155 41" fill="none" xmlns="http://www.w3.org/2000/svg">
  <path d="M0 0.728001V39.928H22.064V32.032H8.4V0.728001H0Z" fill="white"/>
  <path d="M25.276 39.928H34.276C34.276 31.752 42.212 29.728 48.924 29.728C55.564 29.728 63.524 31.752 63.524 39.928H73.524C73.524 31.248 67.812 24.68 59.364 22.048V22.048C66.908 20.52 71.236 14.984 71.236 8.08C71.236 0.728 66.34 0 58.116 0C50.948 0 46.108 2.688 44.676 9.616H35.676C36.644 2.032 43.716 0 50.292 0C57.12 0 61.924 2.368 62.924 8.08C63.668 12.56 62.404 15.92 59.164 17.24C55.788 18.6 50.596 19.6 46.364 19.6C40.916 19.6 34.276 19.096 34.276 24.728V39.928H25.276Z" fill="white"/>
  <path d="M104.524 0.728001H90.524L79.524 39.928H90.524L93.524 28.928H101.524L104.524 39.928H115.524L104.524 0.728001ZM92.524 22.928L96.524 10.928H97.524L101.524 22.928H92.524Z" fill="white"/>
</svg>
