<svg width="32" height="32" viewBox="0 0 32 32" fill="none" xmlns="http://www.w3.org/2000/svg">
  <path d="M16 .396c-8.837 0-16 7.164-16 16 0 7.07 4.584 13.066 10.937 15.18.8.146 1.093-.348 1.093-.772 0-.38-.014-1.39-.022-2.727-4.451.967-5.39-2.147-5.39-2.147-.728-1.848-1.776-2.34-1.776-2.34-1.451-.992.11-.973.11-.973 1.604.113 2.448 1.648 2.448 1.648 1.43 2.447 3.748 1.74 4.66 1.329.145-1.035.559-1.74 1.016-2.142-3.554-.405-7.288-1.777-7.288-7.913 0-1.748.623-3.177 1.647-4.295-.165-.403-.714-2.03.156-4.23 0 0 1.343-.43 4.4 1.64 1.278-.356 2.65-.533 4.015-.54 1.366.007 2.74.184 4.02.54 3.052-2.07 4.392-1.64 4.392-1.64.872 2.2.324 3.827.16 4.23 1.026 1.118 1.646 2.547 1.646 4.295 0 6.152-3.74 7.503-7.3 7.896.576.496 1.086 1.47 1.086 2.963 0 2.14-.02 3.867-.02 4.395 0 .426.286.924 1.1.77C27.42 29.458 32 23.464 32 16.396c0-8.836-7.164-16-16-16z" fill="white"/>
</svg>
