<svg width="16" height="16" viewBox="0 0 24 24" fill="none" xmlns="http://www.w3.org/2000/svg">
  <path d="M23.643 4.937c-.835.37-1.73.62-2.675.733.962-.576 1.7-1.49 2.048-2.578-.9.534-1.897.922-2.958 1.13-.849-.906-2.057-1.474-3.397-1.474-2.572 0-4.655 2.083-4.655 4.654 0 .365.042.72.122 1.061-3.87-.194-7.301-2.048-9.594-4.867-.401.69-.63 1.49-.63 2.347 0 1.62.823 3.05 2.073 3.89-.763-.024-1.48-.234-2.105-.58v.058c0 2.262 1.61 4.147 3.747 4.573-.392.106-.806.163-1.232.163-.302 0-.597-.029-.884-.084.598 1.865 2.33 3.225 4.384 3.263-1.606 1.258-3.632 2.008-5.835 2.008-.379 0-.755-.023-1.124-.066 2.081 1.334 4.554 2.113 7.212 2.113 8.655 0 13.39-7.177 13.39-13.39 0-.204-.004-.409-.013-.612.918-.664 1.718-1.497 2.348-2.444z" fill="white"/>
</svg>
